<?xml version="1.0" standalone="no"?>
<!DOCTYPE svg PUBLIC "-//W3C//DTD SVG 20010904//EN"
 "http://www.w3.org/TR/2001/REC-SVG-20010904/DTD/svg10.dtd">
<svg version="1.0" xmlns="http://www.w3.org/2000/svg"
 width="35.000000pt" height="35.000000pt" viewBox="0 0 35.000000 35.000000"
 preserveAspectRatio="xMidYMid meet">

<g transform="translate(0.000000,35.000000) scale(0.100000,-0.100000)"
fill="#000000" stroke="none">
<path d="M130 339 c-85 -26 -125 -86 -118 -178 15 -215 332 -202 332 14 0 113
-107 195 -214 164z m135 -60 c66 -59 66 -150 -1 -208 -29 -26 -43 -31 -88 -31
-82 0 -136 54 -136 135 0 81 54 135 136 135 45 0 59 -5 89 -31z"/>
<path d="M166 263 c-3 -3 -6 -21 -6 -39 0 -30 -3 -33 -35 -36 -46 -4 -46 -22
-1 -26 32 -3 35 -6 38 -40 4 -48 22 -48 26 0 3 35 5 37 40 40 48 4 48 22 0 26
-36 3 -38 5 -38 37 0 33 -11 51 -24 38z"/>
</g>
</svg>
